<?xml version="1.0" encoding="iso-8859-1"?>
<!-- Generator: Adobe Illustrator 19.0.0, SVG Export Plug-In . SVG Version: 6.00 Build 0)  -->
<svg version="1.1" id="Layer_1" xmlns="http://www.w3.org/2000/svg" xmlns:xlink="http://www.w3.org/1999/xlink" x="0px" y="0px"
	 viewBox="0 0 297 297" style="enable-background:new 0 0 297 297;" xml:space="preserve">
<g>
	<g>
		<g>
			<g>
				<circle style="fill:#503B2C;" cx="148.5" cy="148.5" r="148.5"/>
			</g>
		</g>
	</g>
	<path style="fill:#3D2A1D;" d="M245.408,118.571L84.364,239.538l57.299,57.299c2.267,0.103,4.544,0.163,6.837,0.163
		c75.197,0,137.329-55.895,147.141-128.401L245.408,118.571z"/>
	<path style="fill:#FFCD02;" d="M248.361,124.233c-2.17-6.678-7.803-11.646-14.699-12.964l-45.808-8.757l-22.482-40.858
		c-3.385-6.152-9.851-9.975-16.872-9.975c-7.022,0-13.488,3.822-16.873,9.975l-22.482,40.858l-45.807,8.757
		c-6.897,1.318-12.53,6.286-14.7,12.964c-2.17,6.679-0.532,14.009,4.272,19.129l31.911,34.009l-5.827,46.271
		c-0.877,6.967,2.106,13.858,7.786,17.985c5.682,4.128,13.158,4.837,19.514,1.85l42.206-19.842l42.206,19.842
		c2.608,1.227,5.405,1.829,8.189,1.829c4,0,7.974-1.245,11.323-3.679c5.68-4.127,8.663-11.019,7.786-17.984l-5.827-46.271
		l31.91-34.009C248.894,138.242,250.531,130.912,248.361,124.233z"/>
	<polygon style="fill:#C63C22;" points="268.249,162.877 232.289,162.877 232.289,126.916 199.289,126.916 199.289,162.877 
		163.329,162.877 163.329,195.877 199.289,195.877 199.289,231.837 232.289,231.837 232.289,195.877 268.249,195.877 	"/>
</g>
<g>
</g>
<g>
</g>
<g>
</g>
<g>
</g>
<g>
</g>
<g>
</g>
<g>
</g>
<g>
</g>
<g>
</g>
<g>
</g>
<g>
</g>
<g>
</g>
<g>
</g>
<g>
</g>
<g>
</g>
</svg>
